<?xml version="1.0" standalone="no"?>
<!DOCTYPE svg PUBLIC "-//W3C//DTD SVG 20010904//EN"
 "http://www.w3.org/TR/2001/REC-SVG-20010904/DTD/svg10.dtd">
<svg version="1.0" xmlns="http://www.w3.org/2000/svg"
 width="512.000000pt" height="512.000000pt" viewBox="0 0 512.000000 512.000000"
 preserveAspectRatio="xMidYMid meet">

<g transform="translate(0.000000,512.000000) scale(0.100000,-0.100000)"
fill="#000000" stroke="none">
<path d="M3196 3555 c-3 -9 -6 -39 -6 -66 0 -50 0 -50 -22 -35 -46 33 -125 10
-153 -44 -19 -37 -19 -133 0 -170 8 -16 25 -36 37 -44 28 -20 97 -21 125 -1
19 13 22 13 27 -1 4 -10 16 -14 33 -12 l28 3 0 190 0 190 -31 3 c-22 2 -33 -2
-38 -13z m-24 -162 c37 -43 27 -138 -17 -149 -39 -10 -64 4 -74 43 -18 62 9
123 54 123 12 0 29 -8 37 -17z"/>
<path d="M3474 3557 c-2 -7 -3 -94 -2 -192 l3 -180 28 -3 c17 -2 29 2 33 12 5
14 8 14 27 1 52 -36 145 -7 168 53 15 40 13 126 -5 160 -29 56 -107 79 -154
46 -22 -15 -22 -15 -22 35 0 27 -3 56 -6 65 -7 19 -62 22 -70 3z m168 -164
c25 -29 31 -77 14 -117 -12 -29 -20 -36 -43 -36 -38 0 -52 11 -63 50 -17 59
11 120 55 120 12 0 29 -8 37 -17z"/>
<path d="M1181 3456 c-8 -9 -11 -69 -9 -191 3 -157 5 -179 21 -189 32 -21 51
4 57 74 4 55 7 61 19 47 22 -28 102 -23 134 8 65 66 53 211 -23 250 -38 20
-80 19 -109 -1 -22 -16 -24 -16 -33 0 -11 20 -41 21 -57 2z m168 -72 c42 -54
18 -144 -38 -144 -46 0 -66 34 -62 108 1 28 35 62 60 62 11 0 29 -12 40 -26z"/>
<path d="M1539 3450 c-80 -42 -90 -183 -18 -244 26 -22 40 -26 94 -26 78 0
116 26 135 94 38 136 -88 241 -211 176z m107 -48 c20 -13 34 -50 34 -87 0 -39
-35 -85 -65 -85 -9 0 -27 11 -40 25 -30 29 -34 97 -9 133 15 22 57 30 80 14z"/>
<path d="M1782 3458 c-6 -6 -12 -19 -12 -27 0 -21 56 -204 70 -230 14 -27 76
-30 83 -3 3 9 13 47 23 85 9 37 20 67 23 67 3 0 15 -37 26 -83 l20 -82 40 0
40 0 37 123 c40 130 39 162 -1 162 -28 0 -36 -17 -56 -113 -10 -48 -21 -84
-25 -80 -4 4 -12 40 -19 78 -16 85 -33 115 -66 115 -30 0 -39 -17 -58 -109 -9
-40 -18 -75 -20 -77 -3 -3 -12 26 -22 63 -29 112 -31 118 -51 121 -11 1 -25
-3 -32 -10z"/>
<path d="M2249 3450 c-86 -46 -93 -186 -13 -249 50 -39 190 -22 208 24 10 26
7 34 -13 44 -14 8 -25 6 -44 -9 -48 -38 -127 -17 -127 33 0 15 13 17 100 17
l100 0 0 39 c0 96 -116 151 -211 101z m125 -62 c9 -12 16 -26 16 -30 0 -5 -29
-8 -65 -8 -69 0 -79 8 -48 42 23 26 78 24 97 -4z"/>
<path d="M2511 3453 c-10 -20 -14 -213 -5 -250 5 -20 12 -24 38 -21 l31 3 5
90 c5 99 11 115 41 115 49 0 76 39 47 68 -18 18 -45 15 -68 -8 -11 -11 -22
-20 -24 -20 -2 0 -6 9 -9 20 -6 25 -43 27 -56 3z"/>
<path d="M2761 3453 c-47 -24 -71 -67 -71 -131 0 -102 52 -148 159 -140 49 3
67 9 87 29 42 42 7 85 -39 48 -48 -37 -127 -16 -127 34 0 15 13 17 100 17
l100 0 0 36 c0 94 -115 153 -209 107z m123 -65 c9 -12 16 -26 16 -30 0 -5 -29
-8 -65 -8 -50 0 -65 3 -65 14 0 46 86 64 114 24z"/>
<path d="M3767 3463 c-14 -14 -6 -55 36 -175 24 -69 41 -130 39 -136 -2 -7
-14 -12 -27 -12 -33 0 -50 -33 -29 -54 24 -24 62 -19 92 12 39 40 140 336 121
358 -7 8 -22 14 -33 12 -21 -3 -39 -43 -66 -150 -7 -26 -16 -46 -20 -43 -3 2
-15 41 -25 86 -10 45 -25 88 -33 95 -14 15 -44 19 -55 7z"/>
<path d="M1976 2941 c-4 -6 -10 -122 -13 -259 -6 -239 -5 -248 15 -289 20 -37
22 -61 24 -225 3 -173 5 -186 29 -238 49 -105 117 -150 237 -158 l72 -5 0 85
0 85 -52 14 c-80 22 -91 47 -96 231 -4 145 -4 150 23 210 l28 61 -9 243 c-5
134 -13 246 -17 250 -18 18 -22 -22 -27 -234 -4 -193 -7 -227 -20 -227 -13 0
-16 34 -20 230 -3 143 -9 230 -15 230 -6 0 -12 -87 -15 -230 -4 -196 -7 -230
-20 -230 -13 0 -16 36 -23 230 -5 127 -11 232 -13 234 -14 15 -20 -37 -24
-237 -4 -193 -7 -227 -20 -227 -13 0 -15 33 -18 225 -2 206 -8 260 -26 231z"/>
<path d="M835 2906 c-8 -19 -22 -77 -30 -128 -20 -119 -41 -461 -31 -511 8
-41 40 -77 68 -77 10 0 18 -3 18 -7 0 -4 -21 -59 -46 -121 -52 -132 -51 -145
21 -218 49 -49 116 -74 197 -74 l58 0 0 85 0 85 -41 6 c-54 9 -88 39 -99 89
-5 22 -10 227 -10 456 0 390 -1 417 -18 432 -10 10 -31 17 -46 17 -21 0 -30
-7 -41 -34z"/>
<path d="M1730 2675 l0 -65 105 0 105 0 0 65 0 65 -105 0 -105 0 0 -65z"/>
<path d="M203 2539 c-55 -10 -128 -43 -170 -75 l-33 -25 0 -505 0 -504 40 0
40 0 0 206 0 206 31 -26 c53 -45 97 -58 189 -59 72 0 94 4 141 26 159 76 246
256 214 442 -28 161 -128 267 -290 310 -64 16 -97 17 -162 4z m157 -199 c68
-35 110 -111 110 -199 -1 -62 -29 -120 -80 -164 -170 -145 -392 89 -274 290
49 85 157 117 244 73z"/>
<path d="M1410 2535 c-118 -32 -210 -107 -257 -209 -26 -56 -28 -70 -28 -181
0 -111 2 -124 28 -176 40 -83 96 -140 172 -179 62 -31 75 -34 154 -34 88 1
130 14 204 66 l27 19 0 -35 0 -36 91 0 91 0 -4 243 c-3 240 -3 243 -30 300
-15 32 -41 76 -58 97 -83 105 -257 161 -390 125z m163 -189 c138 -58 166 -269
48 -369 -154 -129 -359 36 -301 244 12 42 63 103 105 124 37 19 105 19 148 1z"/>
<path d="M2685 2534 c-32 -8 -77 -25 -100 -38 -58 -35 -132 -117 -163 -184
-24 -51 -27 -68 -27 -167 1 -100 3 -115 29 -167 44 -89 97 -142 183 -185 73
-36 81 -38 172 -37 116 1 186 24 256 86 44 39 105 129 105 156 0 9 -26 12 -99
12 l-99 0 -34 -34 c-70 -70 -189 -73 -261 -5 -18 17 -27 32 -22 35 6 2 125 53
265 112 253 108 255 109 252 137 -5 42 -48 127 -87 172 -40 47 -111 87 -190
108 -71 18 -101 18 -180 -1z m189 -187 c22 -12 41 -26 43 -32 2 -8 -186 -93
-339 -153 -30 -12 21 127 58 159 63 54 169 66 238 26z"/>
</g>
</svg>
